<svg width="676" height="279" viewBox="0 0 676 279" fill="none" xmlns="http://www.w3.org/2000/svg">
<path d="M184.13 209.533H84.8229L139.138 132.349V129.987L85.3201 53.9219H181.769V3.95738H0.057264V30.3068L75.5012 131.23L0.057264 232.775V259H184.13V209.533ZM471.768 131.727C471.768 47.5831 418.572 0.974422 350.213 0.974422C281.605 0.974422 228.782 47.5831 228.782 131.727C228.782 215.499 281.605 262.48 350.213 262.48C365.997 262.48 380.912 259.994 394.584 255.147L414.346 278.886H470.028L432.492 232.651C456.729 210.403 471.768 176.347 471.768 131.727ZM328.835 167.523L359.41 207.917C356.427 208.29 353.32 208.538 350.213 208.538C313.547 208.538 291.548 181.567 291.548 131.727C291.548 81.8871 313.547 54.9162 350.213 54.9162C387.002 54.9162 408.877 81.8871 408.877 131.727C408.877 155.839 403.782 174.607 394.211 187.533L378.551 167.523H328.835ZM508.03 259H675.448V209.036H569.553V4.45454H508.03V259Z" fill="url(#paint0_linear)"/>
<defs>
<linearGradient id="paint0_linear" x1="708" y1="146" x2="-39" y2="148" gradientUnits="userSpaceOnUse">
<stop offset="0.338542" stop-color="#4E65CD"/>
<stop offset="0.9999" stop-color="#7D0CFE"/>
<stop offset="1" stop-color="#7B10FC"/>
</linearGradient>
</defs>
</svg>
