<svg xmlns="http://www.w3.org/2000/svg" width="124" height="25" viewBox="0 0 124 25">
    <g fill="none" fill-rule="evenodd">
        <g fill-rule="nonzero">
            <g>
                <g>
                    <g fill="#353535">
                        <g>
                            <path d="M8.798 16.212c-.258.272-.583.41-.974.41h-.155c-1.793 0-3.412-.987-4.855-2.958v1.353c0 .398-.139.739-.417 1.022-.279.283-.614.425-1.005.425-.392 0-.722-.142-.99-.425C.134 15.756 0 15.415 0 15.017V1.52C0 1.12.134.785.402.513.67.24 1 .103 1.392.103c.39 0 .726.137 1.005.41.278.272.417.608.417 1.007v9.564c.557.86 1.247 1.536 2.072 2.03.825.492 1.732.738 2.721.738h.155c.412 0 .752.126 1.02.378s.403.577.403.975c0 .399-.13.734-.387 1.007M20.166 4.867c-.58-.67-1.294-1.23-2.142-1.68-.849-.45-1.728-.675-2.638-.675-1.18 0-2.023.23-2.53.69-.507.46-.76 1.068-.76 1.822 0 1.653 1.562 2.48 4.686 2.48h3.384V4.868zm-.047 10.896c-.983.586-2.188.88-3.616.88-1.82 0-3.61-.378-5.37-1.131-.538-.23-.806-.628-.806-1.194 0-.335.113-.617.341-.847.228-.23.497-.346.807-.346.103 0 .238.02.404.063.744.251 1.422.44 2.033.565.61.126 1.308.189 2.095.189 1.427 0 2.477-.304 3.15-.91.672-.608 1.009-1.602 1.009-2.984v-.251H16.41c-2.338 0-4.112-.46-5.323-1.382-1.21-.921-1.816-2.156-1.816-3.705 0-.942.228-1.774.683-2.496.455-.722 1.071-1.272 1.847-1.649S13.42 0 14.331 0c2.358 0 4.303.795 5.835 2.386V1.57c0-.398.134-.733.403-1.005.269-.272.6-.408.993-.408s.73.136 1.01.408c.278.272.418.607.418 1.005v8.886c0 1.088-.233 2.099-.698 3.03-.466.931-1.19 1.69-2.173 2.277zM33.694 9.917l4.467 4.056c.35.356.527.712.527 1.07 0 .376-.109.701-.326.974-.217.272-.564.409-1.039.409-.31 0-.62-.137-.93-.41L29.01 9.1v12.86c0 .399-.14.74-.418 1.023-.28.283-.616.424-1.009.424-.393 0-.724-.141-.992-.424-.27-.283-.403-.624-.403-1.022V1.552c0-.398.134-.733.403-1.006.268-.272.6-.408.992-.408.393 0 .73.136 1.009.408.279.273.418.608.418 1.006V5.61l2.699 2.484L37.044.735c.144-.189.32-.336.527-.44.207-.105.414-.157.62-.157.414 0 .755.125 1.024.377.269.251.403.586.403 1.006 0 .293-.103.576-.31.849l-5.614 7.547zM51.284 4.867c-.58-.67-1.293-1.23-2.141-1.68-.849-.45-1.728-.675-2.638-.675-1.18 0-2.023.23-2.53.69-.507.46-.76 1.068-.76 1.822 0 1.653 1.561 2.48 4.686 2.48h3.383V4.868zm-.046 10.896c-.983.586-2.188.88-3.616.88-1.821 0-3.611-.378-5.37-1.131-.538-.23-.807-.628-.807-1.194 0-.335.114-.617.342-.847.227-.23.496-.346.807-.346.103 0 .237.02.403.063.745.251 1.423.44 2.033.565.61.126 1.309.189 2.095.189 1.428 0 2.478-.304 3.15-.91.673-.608 1.01-1.602 1.01-2.984v-.251h-3.756c-2.339 0-4.113-.46-5.323-1.382-1.21-.921-1.816-2.156-1.816-3.705 0-.942.227-1.774.683-2.496.455-.722 1.07-1.272 1.847-1.649C43.696.188 44.538 0 45.45 0c2.358 0 4.303.795 5.834 2.386V1.57c0-.398.135-.733.404-1.005.268-.272.6-.408.993-.408s.73.136 1.009.408c.28.272.419.607.419 1.005v8.886c0 1.088-.233 2.099-.699 3.03-.465.931-1.19 1.69-2.172 2.277zM80.489 13.554c-.373.922-.948 1.677-1.724 2.265-.776.587-1.744.88-2.904.88-2.526 0-4.43-1.08-5.714-3.24-.353.902-.943 1.668-1.77 2.297-.829.63-1.823.944-2.982.944-1.304 0-2.365-.273-3.183-.818-.818-.546-1.517-1.238-2.096-2.077v1.29c0 .398-.14.74-.42 1.023-.28.283-.616.424-1.01.424-.393 0-.724-.141-.993-.424-.27-.283-.404-.625-.404-1.023V1.598c0-.399.135-.734.404-1.007.269-.272.6-.409.994-.409.393 0 .73.137 1.01.41.279.272.419.607.419 1.006v9.439c.538.901 1.153 1.63 1.847 2.186s1.569.834 2.625.834c1.159 0 1.977-.32 2.453-.96.476-.64.715-1.641.715-3.004V1.598c0-.399.134-.734.403-1.007.269-.272.6-.409.994-.409.393 0 .73.137 1.01.41.279.272.419.607.419 1.006v9.439c.538.901 1.154 1.63 1.848 2.186.693.556 1.568.834 2.624.834 1.159 0 1.977-.32 2.453-.96.476-.64.715-1.641.715-3.004V1.598c0-.399.134-.734.403-1.007.27-.272.6-.409.994-.409.393 0 .73.137 1.01.41.279.272.419.607.419 1.006v9.061c0 1.007-.187 1.971-.56 2.895" transform="translate(-120.000000, -61.000000) translate(120.000000, 56.000000) translate(0.000000, 5.000000) translate(42.000000, 1.000000) translate(41.000000, 12.000000) scale(-1, 1) rotate(-180.000000) translate(-41.000000, -12.000000)"/>
                        </g>
                    </g>
                    <g>
                        <g>
                            <path fill="#4E65CD" d="M3.214 16.071H1.072c-.59 0-1.072-.723-1.072-1.607V1.607C0 .723.482 0 1.072 0h2.142c.59 0 1.072.723 1.072 1.607v12.857c0 .884-.482 1.607-1.072 1.607" transform="translate(-120.000000, -61.000000) translate(120.000000, 56.000000) translate(0.000000, 5.000000) translate(15.000000, 12.500000) scale(-1, 1) rotate(-180.000000) translate(-15.000000, -12.500000) translate(0.000000, -0.000000)"/>
                            <path fill="#5DCEEC" d="M11.786 20.536H9.643c-.59 0-1.072-.66-1.072-1.467V1.467C8.571.66 9.054 0 9.643 0h2.143c.589 0 1.071.66 1.071 1.467v17.602c0 .807-.482 1.467-1.071 1.467" transform="translate(-120.000000, -61.000000) translate(120.000000, 56.000000) translate(0.000000, 5.000000) translate(15.000000, 12.500000) scale(-1, 1) rotate(-180.000000) translate(-15.000000, -12.500000) translate(0.000000, -0.000000)"/>
                            <path fill="#4E65CD" d="M20.357 25h-2.143c-.589 0-1.071-.625-1.071-1.389V1.39c0-.764.482-1.389 1.071-1.389h2.143c.59 0 1.072.625 1.072 1.389V23.61c0 .764-.482 1.389-1.072 1.389" transform="translate(-120.000000, -61.000000) translate(120.000000, 56.000000) translate(0.000000, 5.000000) translate(15.000000, 12.500000) scale(-1, 1) rotate(-180.000000) translate(-15.000000, -12.500000) translate(0.000000, -0.000000)"/>
                            <path fill="#5DCEEC" d="M28.929 19.643h-2.143c-.59 0-1.072-.59-1.072-1.31V1.31c0-.72.482-1.309 1.072-1.309h2.143C29.518 0 30 .59 30 1.31v17.023c0 .72-.482 1.31-1.071 1.31" transform="translate(-120.000000, -61.000000) translate(120.000000, 56.000000) translate(0.000000, 5.000000) translate(15.000000, 12.500000) scale(-1, 1) rotate(-180.000000) translate(-15.000000, -12.500000) translate(0.000000, -0.000000)"/>
                        </g>
                    </g>
                </g>
            </g>
        </g>
    </g>
</svg>
